<svg width="24" height="24" viewBox="0 0 24 24" fill="none" xmlns="http://www.w3.org/2000/svg">
<g clip-path="url(#clip0_3734_8344)">
<path fill-rule="evenodd" clip-rule="evenodd" d="M22.75 8.5C22.75 6.981 21.519 5.75 20 5.75H18.035C17.952 5.75 17.874 5.708 17.827 5.639L16.718 3.975C16.208 3.21 15.349 2.75 14.43 2.75C13.112 2.75 10.888 2.75 9.57 2.75C8.651 2.75 7.792 3.21 7.282 3.975L6.173 5.639C6.126 5.708 6.048 5.75 5.965 5.75H4C2.481 5.75 1.25 6.981 1.25 8.5V18.5C1.25 19.229 1.54 19.929 2.055 20.445C2.571 20.96 3.271 21.25 4 21.25C7.832 21.25 16.168 21.25 20 21.25C20.729 21.25 21.429 20.96 21.945 20.445C22.46 19.929 22.75 19.229 22.75 18.5V8.5ZM21.25 8.5V18.5C21.25 18.832 21.118 19.149 20.884 19.384C20.649 19.618 20.332 19.75 20 19.75H4C3.668 19.75 3.351 19.618 3.116 19.384C2.882 19.149 2.75 18.832 2.75 18.5V8.5C2.75 7.81 3.31 7.25 4 7.25H5.965C6.55 7.25 7.096 6.958 7.421 6.471L8.53 4.807C8.762 4.459 9.152 4.25 9.57 4.25C10.888 4.25 13.112 4.25 14.43 4.25C14.848 4.25 15.238 4.459 15.47 4.807L16.579 6.471C16.904 6.958 17.45 7.25 18.035 7.25H20C20.69 7.25 21.25 7.81 21.25 8.5Z" fill="white" stroke="white" stroke-width="0.6"/>
<path fill-rule="evenodd" clip-rule="evenodd" d="M12 7.75C9.102 7.75 6.75 10.102 6.75 13C6.75 15.898 9.102 18.25 12 18.25C14.898 18.25 17.25 15.898 17.25 13C17.25 10.102 14.898 7.75 12 7.75ZM12 9.25C14.07 9.25 15.75 10.93 15.75 13C15.75 15.07 14.07 16.75 12 16.75C9.93 16.75 8.25 15.07 8.25 13C8.25 10.93 9.93 9.25 12 9.25Z" fill="white" stroke="white" stroke-width="0.6"/>
</g>
<defs>
<clipPath id="clip0_3734_8344">
<rect width="24" height="24" fill="white"/>
</clipPath>
</defs>
</svg>
