<svg width="56" height="56" viewBox="0 0 56 56" fill="none" xmlns="http://www.w3.org/2000/svg">
<g clip-path="url(#clip0_3389_252)">
<path d="M43.9188 11.33L43.2681 8.90447L40.0166 11.793L40.2516 15.7392L44.1977 15.9742L47.0862 12.7226L44.6502 12.0702C44.2766 11.9702 44.0083 11.6791 43.9171 11.3301L43.9188 11.33ZM25.5073 33.7036C26.3965 33.7036 27.1997 33.3441 27.782 32.7601C28.3643 32.1778 28.7256 31.3728 28.7256 30.4853C28.7256 29.9715 28.6063 29.4891 28.3923 29.0595L26.2352 31.2167C25.8318 31.6201 25.1811 31.6201 24.776 31.2167C24.3726 30.8133 24.3726 30.1609 24.776 29.7575L26.9332 27.6003C26.5035 27.3881 26.0194 27.2671 25.5073 27.2671C24.6181 27.2671 23.8149 27.6266 23.2326 28.2106C22.6504 28.7929 22.2891 29.5979 22.2891 30.4853C22.2891 31.3746 22.6486 32.1778 23.2326 32.7601C23.8149 33.3424 24.6199 33.7036 25.5073 33.7036ZM29.2412 34.2193C28.2853 35.1751 26.9665 35.7661 25.5073 35.7661C24.0499 35.7661 22.7293 35.1751 21.7735 34.2193C20.8177 33.2634 20.2266 31.9428 20.2266 30.4853C20.2266 29.0279 20.8177 27.7073 21.7735 26.7514C22.7293 25.7956 24.0499 25.2046 25.5073 25.2046C26.5929 25.2046 27.6014 25.5325 28.4414 26.0938L31.9034 22.6317C31.1458 22.0126 30.297 21.5023 29.385 21.1234C28.1959 20.6306 26.8858 20.3605 25.5091 20.3605C22.7135 20.3605 20.1811 21.4935 18.3484 23.3262C16.5157 25.159 15.3827 27.6898 15.3827 30.4871C15.3827 33.2827 16.5156 35.8151 18.3484 37.6479C20.1794 39.4806 22.7119 40.6136 25.5091 40.6136C28.3046 40.6136 30.837 39.4806 32.6697 37.6479C34.5007 35.8169 35.6354 33.2843 35.6354 30.4871C35.6354 30.0276 35.6091 29.5978 35.5583 29.1962C35.5039 28.77 35.4215 28.3491 35.3145 27.9335C35.1724 27.3845 35.5021 26.8233 36.0511 26.6812C36.6 26.5392 37.1612 26.8689 37.3033 27.4178C37.4313 27.9089 37.5295 28.4158 37.5962 28.9366C37.6628 29.4645 37.6979 29.9819 37.6979 30.4853C37.6979 33.8509 36.3334 36.8972 34.1289 39.1035C31.9226 41.308 28.8764 42.6725 25.5109 42.6725C22.1471 42.6725 19.0991 41.308 16.8929 39.1035C14.6883 36.8989 13.3239 33.8508 13.3239 30.4853C13.3239 27.1197 14.6884 24.0734 16.8929 21.8671C19.0974 19.6625 22.1454 18.298 25.5109 18.298C27.156 18.298 28.7291 18.626 30.169 19.224C31.3423 19.7098 32.4191 20.3693 33.3697 21.1708L37.1 17.4404C35.6531 16.1531 33.9975 15.106 32.1891 14.3571C30.1372 13.5065 27.8836 13.0382 25.5125 13.0382C20.695 13.0382 16.3314 14.992 13.1747 18.149C10.018 21.306 8.06403 25.6694 8.06403 30.487C8.06403 35.3046 10.0178 39.6682 13.1747 42.825C16.3316 45.9818 20.695 47.9358 25.5125 47.9358C30.3299 47.9358 34.6935 45.982 37.8502 42.825C41.007 39.668 42.9609 35.3046 42.9609 30.487C42.9609 29.0611 42.7943 27.6844 42.4769 26.376C42.1489 25.0203 41.6631 23.7243 41.037 22.5106C40.7774 22.0055 40.9756 21.3864 41.4807 21.1251C41.9858 20.8655 42.6049 21.0637 42.8662 21.5688C43.5642 22.9245 44.1079 24.3732 44.4744 25.8937C44.8322 27.3775 45.0234 28.9156 45.0234 30.4886C45.0234 35.8764 42.8399 40.7537 39.3079 44.2845C35.7775 47.8149 30.8987 50 25.511 50C20.1233 50 15.2461 47.8165 11.7154 44.2845C8.18502 40.754 6 35.875 6 30.4886C6 25.1008 8.18524 20.2236 11.7154 16.6914C15.2458 13.1609 20.1247 10.9759 25.511 10.9759C28.147 10.9759 30.667 11.502 32.968 12.4561C34.8831 13.2489 36.6422 14.3345 38.1891 15.6586L37.9383 11.4652C37.905 11.1478 38.0207 10.8181 38.2786 10.5883L43.1508 6.25987C43.2683 6.1564 43.4086 6.07747 43.57 6.03538C44.1189 5.88806 44.6836 6.21427 44.8309 6.76323L45.7622 10.2376L49.2119 11.1619C49.3715 11.2004 49.5241 11.2759 49.6557 11.3934C50.0801 11.7722 50.1169 12.4229 49.7398 12.8473L45.4115 17.7196H45.4097C45.208 17.9459 44.9081 18.0827 44.5819 18.0634L39.689 17.7705L29.9027 27.5569C30.4639 28.3953 30.7919 29.4055 30.7919 30.4911C30.7919 31.9486 30.2009 33.2692 29.2451 34.225L29.2412 34.2193Z" fill="white" stroke="white" stroke-width="0.4"/>
</g>
<defs>
<clipPath id="clip0_3389_252">
<rect width="56" height="56" fill="white"/>
</clipPath>
</defs>
</svg>
